# xmcd
#
# Track frame offsets:
#	150
#	12274
#	29824
#	50618
#	74481
#	90858
#	106723
#	128347
#	138241
#	154140
#	167549
#	182370
#	201866
#	220025
#	235833
#	254715
#	273870
#	294166
#	328505
#
# Disc length: 4770 seconds
#
# Revision: 0
# Processed by: cddbd v1.4PL0 Copyright (c) Steve Scherf et al.
# Submitted via: audiograbber 1.82.02
#
DISCID=0012a013
DTITLE=Various Artist - Diggin Deep - Essential Alternative Country Collection
DYEAR=2003
DGENRE=
TTITLE0=Freedy Johnston - Broken Mirror
TTITLE1=Whiskeytown - Bar Lights
TTITLE2=Lucinda Williams - Right in Time
TTITLE3=Ryan Adams - Come Pick me Up
TTITLE4=David Wilcox - Eye of a Hurricane
TTITLE5=Calexico - Ballad of Cable Hogue
TTITLE6=Missouri - You and Voodoo
TTITLE7=Uncle Tupelo - Wait Up
TTITLE8=Nicolai Dunger - Hey Mama
TTITLE9=Steve Earle - Long, Lonesome Highway Blues
TTITLE10=The Schramms - Torn in Two
TTITLE11=Steve Wynn - Shades of Blue
TTITLE12=Cary Hudson - By Your Side
TTITLE13=Lambchop - All Smiles and Mariachi
TTITLE14=Robert Earl Keen - Not a Drop of Rain
TTITLE15=Sixteen Horsepower - Sinnerman
TTITLE16=The Walkabouts - Radiant
TTITLE17=Son Volt - Strands
TTITLE18=Copycontrol - Daten-CD
EXTD=
EXTT0=
EXTT1=
EXTT2=
EXTT3=
EXTT4=
EXTT5=
EXTT6=
EXTT7=
EXTT8=
EXTT9=
EXTT10=
EXTT11=
EXTT12=
EXTT13=
EXTT14=
EXTT15=
EXTT16=
EXTT17=
EXTT18=
PLAYORDER=
